<svg width="34" height="34" viewBox="0 0 34 34" fill="none" xmlns="http://www.w3.org/2000/svg">
<path d="M23.9833 0.333496H10.0167C3.95 0.333496 0.333332 3.95016 0.333332 10.0168V23.9668C0.333332 30.0502 3.95 33.6668 10.0167 33.6668H23.9667C30.0333 33.6668 33.65 30.0502 33.65 23.9835V10.0168C33.6667 3.95016 30.05 0.333496 23.9833 0.333496ZM19.9833 22.0002C20.4667 22.4835 20.4667 23.2835 19.9833 23.7668C19.7333 24.0168 19.4167 24.1335 19.1 24.1335C18.7833 24.1335 18.4667 24.0168 18.2167 23.7668L12.3333 17.8835C11.85 17.4002 11.85 16.6002 12.3333 16.1168L18.2167 10.2335C18.7 9.75016 19.5 9.75016 19.9833 10.2335C20.4667 10.7168 20.4667 11.5168 19.9833 12.0002L14.9833 17.0002L19.9833 22.0002Z" fill="white"/>
</svg>
